<?xml version="1.0" encoding="us-ascii" standalone="no"?><svg xmlns="http://www.w3.org/2000/svg" xmlns:xlink="http://www.w3.org/1999/xlink" contentStyleType="text/css" height="756.25px" preserveAspectRatio="none" style="width:1009px;height:756px;" version="1.1" viewBox="0 0 1009 756" width="1009.375px" zoomAndPan="magnify"><defs><linearGradient id="g1wnoosbou3wxn0" x1="50%" x2="50%" y1="0%" y2="100%"><stop offset="0%" stop-color="#EDF0F2"/><stop offset="100%" stop-color="#E9ECEF"/></linearGradient><linearGradient id="g1wnoosbou3wxn1" x1="50%" x2="50%" y1="0%" y2="100%"><stop offset="0%" stop-color="#59B6EC"/><stop offset="100%" stop-color="#2FA4E7"/></linearGradient><linearGradient id="g1wnoosbou3wxn2" x1="50%" x2="50%" y1="0%" y2="100%"><stop offset="0%" stop-color="#35638F"/><stop offset="100%" stop-color="#033C73"/></linearGradient></defs><g><rect fill="url(#g1wnoosbou3wxn0)" height="47.168" id="_title" rx="4.1667" ry="4.1667" style="stroke:#BABDBF;stroke-width:1.0416666666666667;" width="258.3333" x="397.9167" y="20.8333"/><text fill="#2FA4E7" font-family="Verdana" font-size="20.8333" font-weight="bold" lengthAdjust="spacing" textLength="235.4167" x="409.375" y="51.6296">Creating a new link</text><rect fill="#EDF0F2" height="567.2201" style="stroke:#BABDBF;stroke-width:1.0416666666666667;" width="10.4167" x="81.7708" y="130.4688"/><rect fill="#EDF0F2" height="196.6797" style="stroke:#BABDBF;stroke-width:1.0416666666666667;" width="10.4167" x="640.1042" y="161.6862"/><rect fill="#EDF0F2" height="171.7448" style="stroke:#BABDBF;stroke-width:1.0416666666666667;" width="10.4167" x="640.1042" y="397.9167"/><rect fill="#EDF0F2" height="88.4766" style="stroke:#BABDBF;stroke-width:1.0416666666666667;" width="10.4167" x="640.1042" y="609.2122"/><rect fill="#EDF0F2" height="39.5508" style="stroke:#BABDBF;stroke-width:1.0416666666666667;" width="10.4167" x="950.5208" y="358.3659"/><rect fill="#EDF0F2" height="39.5508" style="stroke:#BABDBF;stroke-width:1.0416666666666667;" width="10.4167" x="950.5208" y="569.6615"/><line style="stroke:#BABDBF;stroke-width:1.0416666666666667;stroke-dasharray:5.0,5.0;" x1="86.4583" x2="86.4583" y1="120.0521" y2="707.0638"/><line style="stroke:#BABDBF;stroke-width:1.0416666666666667;stroke-dasharray:5.0,5.0;" x1="644.7917" x2="644.7917" y1="120.0521" y2="707.0638"/><line style="stroke:#BABDBF;stroke-width:1.0416666666666667;stroke-dasharray:5.0,5.0;" x1="955.2083" x2="955.2083" y1="120.0521" y2="707.0638"/><rect fill="url(#g1wnoosbou3wxn1)" height="39.5508" rx="4.1667" ry="4.1667" style="stroke:#2FA4E7;stroke-width:1.0416666666666667;" width="59.375" x="57.2917" y="79.4596"/><text fill="#FFFFFF" font-family="Verdana" font-size="12.5" lengthAdjust="spacing" textLength="34.375" x="69.7917" y="103.5624">Client</text><rect fill="url(#g1wnoosbou3wxn1)" height="39.5508" rx="4.1667" ry="4.1667" style="stroke:#2FA4E7;stroke-width:1.0416666666666667;" width="59.375" x="57.2917" y="706.0221"/><text fill="#FFFFFF" font-family="Verdana" font-size="12.5" lengthAdjust="spacing" textLength="34.375" x="69.7917" y="730.1249">Client</text><rect fill="url(#g1wnoosbou3wxn1)" height="39.5508" rx="4.1667" ry="4.1667" style="stroke:#2FA4E7;stroke-width:1.0416666666666667;" width="67.7083" x="611.4583" y="79.4596"/><text fill="#FFFFFF" font-family="Verdana" font-size="12.5" lengthAdjust="spacing" textLength="42.7083" x="623.9583" y="103.5624">Server</text><rect fill="url(#g1wnoosbou3wxn1)" height="39.5508" rx="4.1667" ry="4.1667" style="stroke:#2FA4E7;stroke-width:1.0416666666666667;" width="67.7083" x="611.4583" y="706.0221"/><text fill="#FFFFFF" font-family="Verdana" font-size="12.5" lengthAdjust="spacing" textLength="42.7083" x="623.9583" y="730.1249">Server</text><rect fill="url(#g1wnoosbou3wxn1)" height="39.5508" rx="4.1667" ry="4.1667" style="stroke:#2FA4E7;stroke-width:1.0416666666666667;" width="84.375" x="913.5417" y="79.4596"/><text fill="#FFFFFF" font-family="Verdana" font-size="12.5" lengthAdjust="spacing" textLength="59.375" x="926.0417" y="103.5624">Database</text><rect fill="url(#g1wnoosbou3wxn1)" height="39.5508" rx="4.1667" ry="4.1667" style="stroke:#2FA4E7;stroke-width:1.0416666666666667;" width="84.375" x="913.5417" y="706.0221"/><text fill="#FFFFFF" font-family="Verdana" font-size="12.5" lengthAdjust="spacing" textLength="59.375" x="926.0417" y="730.1249">Database</text><rect fill="#EDF0F2" height="567.2201" style="stroke:#BABDBF;stroke-width:1.0416666666666667;" width="10.4167" x="81.7708" y="130.4688"/><rect fill="#EDF0F2" height="196.6797" style="stroke:#BABDBF;stroke-width:1.0416666666666667;" width="10.4167" x="640.1042" y="161.6862"/><rect fill="#EDF0F2" height="171.7448" style="stroke:#BABDBF;stroke-width:1.0416666666666667;" width="10.4167" x="640.1042" y="397.9167"/><rect fill="#EDF0F2" height="88.4766" style="stroke:#BABDBF;stroke-width:1.0416666666666667;" width="10.4167" x="640.1042" y="609.2122"/><rect fill="#EDF0F2" height="39.5508" style="stroke:#BABDBF;stroke-width:1.0416666666666667;" width="10.4167" x="950.5208" y="358.3659"/><rect fill="#EDF0F2" height="39.5508" style="stroke:#BABDBF;stroke-width:1.0416666666666667;" width="10.4167" x="950.5208" y="569.6615"/><polygon fill="#2FA4E7" points="627.6042,157.5195,638.0208,161.6862,627.6042,165.8529,631.7708,161.6862" style="stroke:#2FA4E7;stroke-width:1.0416666666666667;"/><line style="stroke:#2FA4E7;stroke-width:3.125;" x1="92.1875" x2="633.8542" y1="161.6862" y2="161.6862"/><text fill="#343A40" font-family="Verdana" font-size="12.5" lengthAdjust="spacing" textLength="504.1667" x="104.6875" y="151.4465">POST /api/link -- Body: { "url": "https://youtube.com/watch?v=dQw4w9WgXcQ" }</text><path d="M655.2083,179.3945 L655.2083,249.1862 A4.1667,4.1667 0 0 0 659.375,253.3529 L784.375,253.3529 A4.1667,4.1667 0 0 0 788.5417,249.1862 L788.5417,185.6445 L778.125,175.2279 L659.375,175.2279 A4.1667,4.1667 0 0 0 655.2083,179.3945 " fill="url(#g1wnoosbou3wxn2)" style="stroke:#033C73;stroke-width:1.0416666666666667;"/><path d="M778.125,175.2279 L778.125,183.5612 A2.0833,2.0833 0 0 0 780.2083,185.6445 L788.5417,185.6445 L778.125,175.2279 " fill="url(#g1wnoosbou3wxn2)" style="stroke:#033C73;stroke-width:1.0416666666666667;"/><text fill="#FFFFFF" font-family="Verdana" font-size="12.5" lengthAdjust="spacing" textLength="86.4583" x="666.6667" y="197.2473">Check Cookie</text><text fill="#FFFFFF" font-family="Verdana" font-size="12.5" lengthAdjust="spacing" textLength="64.5833" x="666.6667" y="211.7981">and attach</text><text fill="#FFFFFF" font-family="Verdana" font-size="12.5" lengthAdjust="spacing" textLength="96.875" x="666.6667" y="226.3489">session data to</text><text fill="#FFFFFF" font-family="Verdana" font-size="12.5" lengthAdjust="spacing" textLength="73.9583" x="666.6667" y="240.8997">req.session</text><line style="stroke:#2FA4E7;stroke-width:3.125;" x1="650.5208" x2="694.2708" y1="265.7227" y2="265.7227"/><line style="stroke:#2FA4E7;stroke-width:3.125;" x1="694.2708" x2="694.2708" y1="265.7227" y2="279.2643"/><line style="stroke:#2FA4E7;stroke-width:3.125;" x1="651.5625" x2="694.2708" y1="279.2643" y2="279.2643"/><polygon fill="#2FA4E7" points="661.9792,275.0977,651.5625,279.2643,661.9792,283.431,657.8125,279.2643" style="stroke:#2FA4E7;stroke-width:1.0416666666666667;"/><polygon fill="#FF0000" points="103.6458,314.6484,93.2292,318.8151,103.6458,322.9818,99.4792,318.8151" style="stroke:#FF0000;stroke-width:1.0416666666666667;"/><line style="stroke:#FF0000;stroke-width:3.125;stroke-dasharray:2.0,2.0;" x1="97.3958" x2="639.0625" y1="318.8151" y2="318.8151"/><text fill="#343A40" font-family="Verdana" font-size="12.5" lengthAdjust="spacing" textLength="266.6667" x="115.1042" y="308.5754">If client is not logged in: 401 Unauthorized</text><polygon fill="#2FA4E7" points="938.0208,354.1992,948.4375,358.3659,938.0208,362.5326,942.1875,358.3659" style="stroke:#2FA4E7;stroke-width:1.0416666666666667;"/><line style="stroke:#2FA4E7;stroke-width:3.125;" x1="645.3125" x2="944.2708" y1="358.3659" y2="358.3659"/><text fill="#343A40" font-family="Verdana" font-size="12.5" lengthAdjust="spacing" textLength="226.0417" x="657.8125" y="348.1262">Query by `userId` from req.session</text><polygon fill="#2FA4E7" points="661.9792,393.75,651.5625,397.9167,661.9792,402.0833,657.8125,397.9167" style="stroke:#2FA4E7;stroke-width:1.0416666666666667;"/><line style="stroke:#2FA4E7;stroke-width:3.125;" x1="655.7292" x2="954.6875" y1="397.9167" y2="397.9167"/><text fill="#343A40" font-family="Verdana" font-size="12.5" lengthAdjust="spacing" textLength="228.125" x="673.4375" y="387.677">Send back either User data or `null`</text><polygon fill="#FF0000" points="103.6458,433.3008,93.2292,437.4674,103.6458,441.6341,99.4792,437.4674" style="stroke:#FF0000;stroke-width:1.0416666666666667;"/><line style="stroke:#FF0000;stroke-width:3.125;stroke-dasharray:2.0,2.0;" x1="97.3958" x2="639.0625" y1="437.4674" y2="437.4674"/><text fill="#343A40" font-family="Verdana" font-size="12.5" lengthAdjust="spacing" textLength="257.2917" x="115.1042" y="427.2278">If user data doesn't exist: 404 Not Found</text><polygon fill="#FF0000" points="103.6458,472.8516,93.2292,477.0182,103.6458,481.1849,99.4792,477.0182" style="stroke:#FF0000;stroke-width:1.0416666666666667;"/><line style="stroke:#FF0000;stroke-width:3.125;stroke-dasharray:2.0,2.0;" x1="97.3958" x2="639.0625" y1="477.0182" y2="477.0182"/><text fill="#343A40" font-family="Verdana" font-size="12.5" lengthAdjust="spacing" textLength="512.5" x="115.1042" y="466.7786">If user is neither pro nor admin and tries to create too many links: 403 Forbidden</text><line style="stroke:#2FA4E7;stroke-width:3.125;" x1="650.5208" x2="694.2708" y1="516.569" y2="516.569"/><line style="stroke:#2FA4E7;stroke-width:3.125;" x1="694.2708" x2="694.2708" y1="516.569" y2="530.1107"/><line style="stroke:#2FA4E7;stroke-width:3.125;" x1="651.5625" x2="694.2708" y1="530.1107" y2="530.1107"/><polygon fill="#2FA4E7" points="661.9792,525.944,651.5625,530.1107,661.9792,534.2773,657.8125,530.1107" style="stroke:#2FA4E7;stroke-width:1.0416666666666667;"/><text fill="#343A40" font-family="Verdana" font-size="12.5" lengthAdjust="spacing" textLength="132.2917" x="663.0208" y="506.3293">Create a new `linkId`</text><polygon fill="#2FA4E7" points="938.0208,565.4948,948.4375,569.6615,938.0208,573.8281,942.1875,569.6615" style="stroke:#2FA4E7;stroke-width:1.0416666666666667;"/><line style="stroke:#2FA4E7;stroke-width:3.125;" x1="645.3125" x2="944.2708" y1="569.6615" y2="569.6615"/><text fill="#343A40" font-family="Verdana" font-size="12.5" lengthAdjust="spacing" textLength="207.2917" x="657.8125" y="559.4218">Add the new link to the database</text><polygon fill="#2FA4E7" points="661.9792,605.0456,651.5625,609.2122,661.9792,613.3789,657.8125,609.2122" style="stroke:#2FA4E7;stroke-width:1.0416666666666667;"/><line style="stroke:#2FA4E7;stroke-width:3.125;" x1="655.7292" x2="954.6875" y1="609.2122" y2="609.2122"/><text fill="#343A40" font-family="Verdana" font-size="12.5" lengthAdjust="spacing" textLength="269.7917" x="673.4375" y="598.9726">Return the link with the autogenerated data</text><polygon fill="#FF0000" points="103.6458,644.5964,93.2292,648.763,103.6458,652.9297,99.4792,648.763" style="stroke:#FF0000;stroke-width:1.0416666666666667;"/><line style="stroke:#FF0000;stroke-width:3.125;stroke-dasharray:2.0,2.0;" x1="97.3958" x2="639.0625" y1="648.763" y2="648.763"/><text fill="#343A40" font-family="Verdana" font-size="12.5" lengthAdjust="spacing" textLength="275" x="115.1042" y="638.5234">If the insert failed: 500 Internal Server Error</text><polygon fill="#008000" points="103.6458,684.1471,93.2292,688.3138,103.6458,692.4805,99.4792,688.3138" style="stroke:#008000;stroke-width:1.0416666666666667;"/><line style="stroke:#008000;stroke-width:3.125;" x1="97.3958" x2="639.0625" y1="688.3138" y2="688.3138"/><text fill="#343A40" font-family="Verdana" font-size="12.5" lengthAdjust="spacing" textLength="273.9583" x="115.1042" y="678.0741">Status 201 and JSON encoded `Link` object</text><!--SRC=[hP9DRzD048Rl-ok6SE12cW3XW2MA880KX5f2g412bRpsJkmbpcoOdKq8YF_EhfsFqbQY1tpnpjZxpCpxpZsfSObG8eS6DIcnqY2C6RLOga03uGOQImkbT2bshIL-RIoIgExLFvqXhv4p-70- -mG3lRA3z3_q-_3AcMq6lw0NkEbbqAj5LZuR3BOkI2Zmf7JBmKPBMRzOFpVJpMZpx7FrfPpsuFULQXrUAN8nO5lLiaz1VCOrbWiOExUm26r6am4jeikwYprwRns1qQ91N9Ta_7wo-w0mNaXmfJhkSI9rI7qjN6CUtcSqb_tJRl0C9dCesoDOdmZGkAf20vOo60qVmGNf8BLZ-nFD4Vuwzb5eZnbC0_8MYYtamIDFJ0vpTik_UZDuNOT3lESejJyT6v-bcGeTbK4R3MQuY0Kw1Hn3Jg5fygli0-k6wlyI81p0ng6d1mBumtf90epWB6horWKoT-Ga6NSDhzX5IHcqMLfgFHMsw9E1PLfEZ2S7IqtRTZjzAlWa5kF26eEaRfevxgvr6vsdIr7nssnvQMAn6W-RdsgcsEn5kfCfjxZo4IKmjQoMkucZjb5S4rSX8KU4QUly7tCIsr9KLc2kROCcWwV38Kn8a4atEmwyONPy7LOn8bqUQ3FH4ZmyZckTp7WtEpy3fDAPs73-FawJWok-OIb_0000]--></g></svg>
