<?xml version="1.0" encoding="us-ascii" standalone="no"?><svg xmlns="http://www.w3.org/2000/svg" xmlns:xlink="http://www.w3.org/1999/xlink" contentStyleType="text/css" height="506.25px" preserveAspectRatio="none" style="width:1229px;height:506px;" version="1.1" viewBox="0 0 1229 506" width="1229.1667px" zoomAndPan="magnify"><defs><linearGradient id="g1pf1b5fwd07640" x1="50%" x2="50%" y1="0%" y2="100%"><stop offset="0%" stop-color="#EDF0F2"/><stop offset="100%" stop-color="#E9ECEF"/></linearGradient><linearGradient id="g1pf1b5fwd07641" x1="50%" x2="50%" y1="0%" y2="100%"><stop offset="0%" stop-color="#59B6EC"/><stop offset="100%" stop-color="#2FA4E7"/></linearGradient></defs><g><rect fill="url(#g1pf1b5fwd07640)" height="47.168" id="_title" rx="4.1667" ry="4.1667" style="stroke:#BABDBF;stroke-width:1.0416666666666667;" width="330.2083" x="472.1354" y="20.8333"/><text fill="#2FA4E7" font-family="Verdana" font-size="20.8333" font-weight="bold" lengthAdjust="spacing" textLength="307.2917" x="483.5938" y="51.6296">Visiting a Shortened Link</text><rect fill="#EDF0F2" height="39.5508" style="stroke:#BABDBF;stroke-width:1.0416666666666667;" width="10.4167" x="91.6667" y="398.9909"/><rect fill="#EDF0F2" height="308.0729" style="stroke:#BABDBF;stroke-width:1.0416666666666667;" width="10.4167" x="453.125" y="130.4688"/><rect fill="#EDF0F2" height="39.5508" style="stroke:#BABDBF;stroke-width:1.0416666666666667;" width="10.4167" x="748.9583" y="161.6862"/><rect fill="#EDF0F2" height="118.6523" style="stroke:#BABDBF;stroke-width:1.0416666666666667;" width="10.4167" x="748.9583" y="240.7878"/><rect fill="#EDF0F2" height="39.5508" style="stroke:#BABDBF;stroke-width:1.0416666666666667;" width="10.4167" x="1170.8333" y="201.237"/><line style="stroke:#BABDBF;stroke-width:1.0416666666666667;stroke-dasharray:5.0,5.0;" x1="96.875" x2="96.875" y1="120.0521" y2="457.2917"/><line style="stroke:#BABDBF;stroke-width:1.0416666666666667;stroke-dasharray:5.0,5.0;" x1="457.8125" x2="457.8125" y1="120.0521" y2="457.2917"/><line style="stroke:#BABDBF;stroke-width:1.0416666666666667;stroke-dasharray:5.0,5.0;" x1="753.6458" x2="753.6458" y1="120.0521" y2="457.2917"/><line style="stroke:#BABDBF;stroke-width:1.0416666666666667;stroke-dasharray:5.0,5.0;" x1="1175.5208" x2="1175.5208" y1="120.0521" y2="457.2917"/><rect fill="url(#g1pf1b5fwd07641)" height="39.5508" rx="4.1667" ry="4.1667" style="stroke:#2FA4E7;stroke-width:1.0416666666666667;" width="79.1667" x="57.2917" y="79.4596"/><text fill="#FFFFFF" font-family="Verdana" font-size="12.5" lengthAdjust="spacing" textLength="54.1667" x="69.7917" y="103.5624">YouTube</text><rect fill="url(#g1pf1b5fwd07641)" height="39.5508" rx="4.1667" ry="4.1667" style="stroke:#2FA4E7;stroke-width:1.0416666666666667;" width="79.1667" x="57.2917" y="456.25"/><text fill="#FFFFFF" font-family="Verdana" font-size="12.5" lengthAdjust="spacing" textLength="54.1667" x="69.7917" y="480.3528">YouTube</text><rect fill="url(#g1pf1b5fwd07641)" height="39.5508" rx="4.1667" ry="4.1667" style="stroke:#2FA4E7;stroke-width:1.0416666666666667;" width="59.375" x="428.6458" y="79.4596"/><text fill="#FFFFFF" font-family="Verdana" font-size="12.5" lengthAdjust="spacing" textLength="34.375" x="441.1458" y="103.5624">Client</text><rect fill="url(#g1pf1b5fwd07641)" height="39.5508" rx="4.1667" ry="4.1667" style="stroke:#2FA4E7;stroke-width:1.0416666666666667;" width="59.375" x="428.6458" y="456.25"/><text fill="#FFFFFF" font-family="Verdana" font-size="12.5" lengthAdjust="spacing" textLength="34.375" x="441.1458" y="480.3528">Client</text><rect fill="url(#g1pf1b5fwd07641)" height="39.5508" rx="4.1667" ry="4.1667" style="stroke:#2FA4E7;stroke-width:1.0416666666666667;" width="67.7083" x="720.3125" y="79.4596"/><text fill="#FFFFFF" font-family="Verdana" font-size="12.5" lengthAdjust="spacing" textLength="42.7083" x="732.8125" y="103.5624">Server</text><rect fill="url(#g1pf1b5fwd07641)" height="39.5508" rx="4.1667" ry="4.1667" style="stroke:#2FA4E7;stroke-width:1.0416666666666667;" width="67.7083" x="720.3125" y="456.25"/><text fill="#FFFFFF" font-family="Verdana" font-size="12.5" lengthAdjust="spacing" textLength="42.7083" x="732.8125" y="480.3528">Server</text><rect fill="url(#g1pf1b5fwd07641)" height="39.5508" rx="4.1667" ry="4.1667" style="stroke:#2FA4E7;stroke-width:1.0416666666666667;" width="84.375" x="1133.8542" y="79.4596"/><text fill="#FFFFFF" font-family="Verdana" font-size="12.5" lengthAdjust="spacing" textLength="59.375" x="1146.3542" y="103.5624">Database</text><rect fill="url(#g1pf1b5fwd07641)" height="39.5508" rx="4.1667" ry="4.1667" style="stroke:#2FA4E7;stroke-width:1.0416666666666667;" width="84.375" x="1133.8542" y="456.25"/><text fill="#FFFFFF" font-family="Verdana" font-size="12.5" lengthAdjust="spacing" textLength="59.375" x="1146.3542" y="480.3528">Database</text><rect fill="#EDF0F2" height="39.5508" style="stroke:#BABDBF;stroke-width:1.0416666666666667;" width="10.4167" x="91.6667" y="398.9909"/><rect fill="#EDF0F2" height="308.0729" style="stroke:#BABDBF;stroke-width:1.0416666666666667;" width="10.4167" x="453.125" y="130.4688"/><rect fill="#EDF0F2" height="39.5508" style="stroke:#BABDBF;stroke-width:1.0416666666666667;" width="10.4167" x="748.9583" y="161.6862"/><rect fill="#EDF0F2" height="118.6523" style="stroke:#BABDBF;stroke-width:1.0416666666666667;" width="10.4167" x="748.9583" y="240.7878"/><rect fill="#EDF0F2" height="39.5508" style="stroke:#BABDBF;stroke-width:1.0416666666666667;" width="10.4167" x="1170.8333" y="201.237"/><polygon fill="#2FA4E7" points="736.4583,157.5195,746.875,161.6862,736.4583,165.8529,740.625,161.6862" style="stroke:#2FA4E7;stroke-width:1.0416666666666667;"/><line style="stroke:#2FA4E7;stroke-width:3.125;" x1="463.5417" x2="742.7083" y1="161.6862" y2="161.6862"/><text fill="#343A40" font-family="Verdana" font-size="12.5" lengthAdjust="spacing" textLength="79.1667" x="476.0417" y="151.4465">GET /{linkId}</text><polygon fill="#2FA4E7" points="1158.3333,197.0703,1168.75,201.237,1158.3333,205.4036,1162.5,201.237" style="stroke:#2FA4E7;stroke-width:1.0416666666666667;"/><line style="stroke:#2FA4E7;stroke-width:3.125;" x1="754.1667" x2="1164.5833" y1="201.237" y2="201.237"/><text fill="#343A40" font-family="Verdana" font-size="12.5" lengthAdjust="spacing" textLength="107.2917" x="766.6667" y="190.9973">Query by `linkId`</text><polygon fill="#2FA4E7" points="770.8333,236.6211,760.4167,240.7878,770.8333,244.9544,766.6667,240.7878" style="stroke:#2FA4E7;stroke-width:1.0416666666666667;"/><line style="stroke:#2FA4E7;stroke-width:3.125;" x1="764.5833" x2="1175" y1="240.7878" y2="240.7878"/><text fill="#343A40" font-family="Verdana" font-size="12.5" lengthAdjust="spacing" textLength="221.875" x="782.2917" y="230.5481">Send back either Link data or `null`</text><polygon fill="#FF0000" points="475,276.1719,464.5833,280.3385,475,284.5052,470.8333,280.3385" style="stroke:#FF0000;stroke-width:1.0416666666666667;"/><line style="stroke:#FF0000;stroke-width:3.125;stroke-dasharray:2.0,2.0;" x1="468.75" x2="747.9167" y1="280.3385" y2="280.3385"/><text fill="#343A40" font-family="Verdana" font-size="12.5" lengthAdjust="spacing" textLength="250" x="486.4583" y="270.0989">If link data doesn't exist: 404 Not Found</text><polygon fill="#2FA4E7" points="1163.5417,315.7227,1173.9583,319.8893,1163.5417,324.056,1167.7083,319.8893" style="stroke:#2FA4E7;stroke-width:1.0416666666666667;"/><line style="stroke:#2FA4E7;stroke-width:3.125;" x1="759.375" x2="1169.7917" y1="319.8893" y2="319.8893"/><text fill="#343A40" font-family="Verdana" font-size="12.5" lengthAdjust="spacing" textLength="381.25" x="771.875" y="309.6497">Increment the `numHits` for this `linkId` and update the date</text><polygon fill="#008000" points="475,355.2734,464.5833,359.4401,475,363.6068,470.8333,359.4401" style="stroke:#008000;stroke-width:1.0416666666666667;"/><line style="stroke:#008000;stroke-width:3.125;" x1="468.75" x2="753.125" y1="359.4401" y2="359.4401"/><text fill="#343A40" font-family="Verdana" font-size="12.5" lengthAdjust="spacing" textLength="226.0417" x="486.4583" y="349.2004">Redirect the user to the original URL</text><polygon fill="#008080" points="113.5417,394.8242,103.125,398.9909,113.5417,403.1576,109.375,398.9909" style="stroke:#008080;stroke-width:1.0416666666666667;"/><line style="stroke:#008080;stroke-width:3.125;" x1="107.2917" x2="452.0833" y1="398.9909" y2="398.9909"/><text fill="#343A40" font-family="Verdana" font-size="12.5" lengthAdjust="spacing" textLength="320.8333" x="125" y="388.7512">GET https://youtube.com/watch?v=dQw4w9WgXcQ</text><polygon fill="#008080" points="445.8333,434.375,456.25,438.5417,445.8333,442.7083,450,438.5417" style="stroke:#008080;stroke-width:1.0416666666666667;"/><line style="stroke:#008080;stroke-width:3.125;" x1="96.875" x2="452.0833" y1="438.5417" y2="438.5417"/><text fill="#343A40" font-family="Verdana" font-size="12.5" lengthAdjust="spacing" textLength="131.25" x="109.375" y="428.302">Responds with video</text><!--SRC=[RL9BJm8n4BxtLupnu4N40nT9n8DF4cB2mrSCoNRRWPrGsaqx1OdnlrjS5X0zpMmxy_Lxx14NE4TGwAD1QGKJ6uHd2iHafo1XM3ZFQ553Z-nCY59w9aMbj0nlBevYZa98nRIGZ71j22sBgZGwG_GBz6sulnr1yzCaWAx-sXklxeMeQgDp8rdcCc0R-X7z2l8LPDLM1aBZuTxskzuJekvsRm_HQiYbcW5I4kj_T81ES-0yP3OQa-rZRx7-iAnflkVEwDDZZthSw5HIsz2TWDa2QuV1dZ3W1uLqrpflmQDZk7FHwl_KTgtoAOPaQMAuvZH_80uPJ193BYZiN919J2prcjPwTDqSyffwH3lU4XkW9e-gWeuX6S3kftUUfcIbWQT1xnzpHPtY1fPHcd5d4taLQS5SXdQpkNAHq-6PSlFcKh8ghXQNkhziBIzUfg-g3pihwpzcKtzZxnY7qbaTO9a2WmLfTFlyQeozeshp6m00]--></g></svg>
